<svg width="36" height="40" viewBox="0 0 36 40" fill="none" xmlns="http://www.w3.org/2000/svg">
<path d="M4.3 35.7C2.93333 34.1 1.875 32.3083 1.125 30.325C0.375 28.3417 0 26.2333 0 24C0 19 1.75 14.75 5.25 11.25C8.75 7.75 13 6 18 6H18.4L15.2 2.8L18 0L26 8L18 16L15.15 13.15L18.3 10H18C14.1333 10 10.8333 11.3667 8.1 14.1C5.36667 16.8333 4 20.1333 4 24C4 25.7 4.275 27.3 4.825 28.8C5.375 30.3 6.15 31.65 7.15 32.85L4.3 35.7ZM16 35C16 34.2333 15.7417 33.475 15.225 32.725C14.7083 31.975 14.1333 31.1917 13.5 30.375C12.8667 29.5583 12.2917 28.7083 11.775 27.825C11.2583 26.9417 11 26 11 25C11 23.0667 11.6833 21.4167 13.05 20.05C14.4167 18.6833 16.0667 18 18 18C19.9333 18 21.5833 18.6833 22.95 20.05C24.3167 21.4167 25 23.0667 25 25C25 26 24.7417 26.9417 24.225 27.825C23.7083 28.7083 23.1333 29.5583 22.5 30.375C21.8667 31.1917 21.2917 31.975 20.775 32.725C20.2583 33.475 20 34.2333 20 35H16ZM16 40V37H20V40H16ZM31.7 35.7L28.85 32.85C29.85 31.65 30.625 30.3 31.175 28.8C31.725 27.3 32 25.7 32 24C32 21.8 31.5417 19.7583 30.625 17.875C29.7083 15.9917 28.45 14.4167 26.85 13.15L29.7 10.3C31.6333 11.9667 33.1667 13.975 34.3 16.325C35.4333 18.675 36 21.2333 36 24C36 26.2333 35.625 28.3417 34.875 30.325C34.125 32.3083 33.0667 34.1 31.7 35.7Z" fill="white"/>
</svg>
