<svg width="41" height="41" viewBox="0 0 41 41" fill="none" xmlns="http://www.w3.org/2000/svg">
<g clip-path="url(#clip0_15238_12206)">
<path d="M20.9091 18L18 20.9091L15.0909 18L18 15.0909L20.9091 18ZM18 9.27273L21.0836 12.3564L24.72 8.72L18 2L11.28 8.72L14.9164 12.3564L18 9.27273ZM9.27273 18L12.3564 14.9164L8.72 11.28L2 18L8.72 24.72L12.3564 21.0836L9.27273 18ZM26.7273 18L23.6436 21.0836L27.28 24.72L34 18L27.28 11.28L23.6436 14.9164L26.7273 18ZM18 26.7273L14.9164 23.6436L11.28 27.28L18 34L24.72 27.28L21.0836 23.6436L18 26.7273Z" fill="white"/>
</g>
<defs>
<clipPath id="clip0_15238_12206">
<rect width="40" height="40" fill="white" transform="translate(0.21875 0.336914)"/>
</clipPath>
</defs>
</svg>
