<svg width="40" height="40" viewBox="0 0 40 40" fill="none" xmlns="http://www.w3.org/2000/svg">
<g clip-path="url(#clip0_15238_12613)">
<path d="M33.1337 30.7834C33.867 29.6167 34.3003 28.2667 34.3003 26.8C34.3003 22.65 30.9503 19.3 26.8003 19.3C22.6503 19.3 19.3003 22.65 19.3003 26.8C19.3003 30.95 22.6503 34.3 26.7837 34.3C28.2503 34.3 29.617 33.8667 30.767 33.1334L35.967 38.3334L38.3337 35.9667L33.1337 30.7834ZM26.8003 30.9667C24.5003 30.9667 22.6337 29.1 22.6337 26.8C22.6337 24.5 24.5003 22.6334 26.8003 22.6334C29.1003 22.6334 30.967 24.5 30.967 26.8C30.967 29.1 29.1003 30.9667 26.8003 30.9667ZM26.2003 16.8C24.967 16.8334 23.7837 17.1 22.7003 17.55L21.7837 16.1667L15.4503 26.4667L10.4337 20.6L4.38366 30.2834L1.66699 28.3334L10.0003 15L15.0003 20.8334L21.667 10L26.2003 16.8ZM30.517 17.6334C29.4503 17.1667 28.3003 16.8834 27.1003 16.8167L35.6337 3.33337L38.3337 5.30004L30.517 17.6334Z" fill="white"/>
</g>
<defs>
<clipPath id="clip0_15238_12613">
<rect width="40" height="40" fill="white"/>
</clipPath>
</defs>
</svg>
