<svg width="41" height="41" viewBox="0 0 41 41" fill="none" xmlns="http://www.w3.org/2000/svg">
<g clip-path="url(#clip0_15238_11672)">
<path d="M35.8367 12.3266C36.4867 11.6766 36.4867 10.6266 35.8367 9.97663L31.1201 5.25996C30.4701 4.60996 29.4201 4.60996 28.7701 5.25996L21.2867 12.7433L14.8034 6.25996C13.5034 4.95996 11.3867 4.95996 10.0867 6.25996L6.92005 9.42663C5.62005 10.7266 5.62005 12.8433 6.92005 14.1433L13.4034 20.6266L5.88672 28.1433V35.21H12.9534L20.4867 27.6766L26.9701 34.16C28.5534 35.7433 30.6867 35.16 31.6867 34.16L34.8534 30.9933C36.1534 29.6933 36.1534 27.5766 34.8534 26.2766L28.3701 19.7933L35.8367 12.3266ZM9.28672 11.7766L12.4367 8.60996L14.5534 10.7266L12.5867 12.71L14.9367 15.06L16.9201 13.0766L18.9201 15.0766L15.7534 18.2433L9.28672 11.7766ZM28.0034 24.1766L26.0201 26.16L28.3701 28.51L30.3534 26.5266L32.4701 28.6433L29.3034 31.81L22.8201 25.3266L25.9867 22.16L28.0034 24.1766ZM11.5701 31.8766H9.22005V29.5266L25.2367 13.51L27.4034 15.6766L27.5867 15.86L11.5701 31.8766ZM27.5867 11.1433L29.9367 8.79329L32.2867 11.1433L29.9367 13.4933L27.5867 11.1433Z" fill="white"/>
</g>
<defs>
<clipPath id="clip0_15238_11672">
<rect width="40" height="40" fill="white" transform="translate(0.886719 0.209961)"/>
</clipPath>
</defs>
</svg>
