<svg width="41" height="41" viewBox="0 0 41 41" fill="none" xmlns="http://www.w3.org/2000/svg">
<path d="M20.5 37.3298C19.7777 37.3298 19.125 37.1562 18.5416 36.809C17.9583 36.4617 17.5 35.9965 17.1666 35.4131C16.25 35.4131 15.4652 35.0867 14.8125 34.434C14.1597 33.7812 13.8333 32.9965 13.8333 32.0798V26.1631C12.1944 25.0798 10.8819 23.6492 9.89579 21.8715C8.90968 20.0937 8.41663 18.1631 8.41663 16.0798C8.41663 12.7187 9.59024 9.86452 11.9375 7.51729C14.2847 5.17007 17.1388 3.99646 20.5 3.99646C23.8611 3.99646 26.7152 5.17007 29.0625 7.51729C31.4097 9.86452 32.5833 12.7187 32.5833 16.0798C32.5833 18.2187 32.0902 20.1631 31.1041 21.9131C30.118 23.6631 28.8055 25.0798 27.1666 26.1631V32.0798C27.1666 32.9965 26.8402 33.7812 26.1875 34.434C25.5347 35.0867 24.75 35.4131 23.8333 35.4131C23.5 35.9965 23.0416 36.4617 22.4583 36.809C21.875 37.1562 21.2222 37.3298 20.5 37.3298ZM17.1666 32.0798H23.8333V30.5798H17.1666V32.0798ZM17.1666 28.9131H23.8333V27.3298H17.1666V28.9131ZM16.8333 23.9965H19.25V19.4965L16.4583 16.7048C16.2083 16.4548 16.0833 16.1631 16.0833 15.8298C16.0833 15.4965 16.2083 15.2048 16.4583 14.9548C16.7083 14.7048 17 14.5798 17.3333 14.5798C17.6666 14.5798 17.9583 14.7048 18.2083 14.9548L20.5 17.2465L22.7916 14.9548C23.0416 14.7048 23.3333 14.5798 23.6666 14.5798C24 14.5798 24.2916 14.7048 24.5416 14.9548C24.7916 15.2048 24.9166 15.4965 24.9166 15.8298C24.9166 16.1631 24.7916 16.4548 24.5416 16.7048L21.75 19.4965V23.9965H24.1666C25.6666 23.2742 26.8888 22.2117 27.8333 20.809C28.7777 19.4062 29.25 17.8298 29.25 16.0798C29.25 13.6353 28.4027 11.5659 26.7083 9.87146C25.0138 8.17702 22.9444 7.32979 20.5 7.32979C18.0555 7.32979 15.9861 8.17702 14.2916 9.87146C12.5972 11.5659 11.75 13.6353 11.75 16.0798C11.75 17.8298 12.2222 19.4062 13.1666 20.809C14.1111 22.2117 15.3333 23.2742 16.8333 23.9965Z" fill="#1F1F1F"/>
</svg>
