<svg width="41" height="40" viewBox="0 0 41 40" fill="none" xmlns="http://www.w3.org/2000/svg">
<g clip-path="url(#clip0_15238_11942)">
<path d="M10.3224 25C8.9391 25 7.6891 25.5667 6.7891 26.4667C4.82243 28.4334 3.65576 36.6667 3.65576 36.6667C3.65576 36.6667 11.8891 35.5001 13.8558 33.5334C14.7558 32.6334 15.3224 31.3834 15.3224 30C15.3224 27.2334 13.0891 25 10.3224 25ZM11.5058 31.1834C11.0391 31.65 7.88909 32.4501 7.88909 32.4501C7.88909 32.4501 8.67243 29.3167 9.15576 28.8334C9.4391 28.5167 9.85576 28.3334 10.3224 28.3334C11.2391 28.3334 11.9891 29.0834 11.9891 30C11.9891 30.4667 11.8058 30.8834 11.5058 31.1834ZM29.3558 22.75C39.9558 12.15 36.4224 3.90005 36.4224 3.90005C36.4224 3.90005 28.1724 0.366717 17.5724 10.9667L13.4224 10.1334C12.3391 9.91672 11.2058 10.2667 10.4058 11.0501L3.65576 17.8167L11.9891 21.3834L18.9391 28.3334L22.5058 36.6667L29.2558 29.9167C30.0391 29.1334 30.3891 28 30.1724 26.9L29.3558 22.75ZM12.6724 18.05L9.48909 16.6834L12.7724 13.4001L15.1724 13.8834C14.2224 15.2667 13.3724 16.7167 12.6724 18.05ZM23.6391 30.8334L22.2724 27.65C23.6058 26.9501 25.0558 26.1 26.4224 25.15L26.9058 27.5501L23.6391 30.8334ZM26.9891 20.4C24.7891 22.6 21.3558 24.4 20.2558 24.9501L15.3724 20.0667C15.9058 18.9834 17.7058 15.5501 19.9224 13.3334C27.7224 5.53338 33.6391 6.68338 33.6391 6.68338C33.6391 6.68338 34.7891 12.6 26.9891 20.4ZM25.3224 18.3334C27.1558 18.3334 28.6558 16.8334 28.6558 15.0001C28.6558 13.1667 27.1558 11.6667 25.3224 11.6667C23.4891 11.6667 21.9891 13.1667 21.9891 15.0001C21.9891 16.8334 23.4891 18.3334 25.3224 18.3334Z" fill="white"/>
</g>
<defs>
<clipPath id="clip0_15238_11942">
<rect width="40" height="40" fill="white" transform="translate(0.322266)"/>
</clipPath>
</defs>
</svg>
